<mxfile host="app.diagrams.net" agent="Mozilla/5.0 (Macintosh; Intel Mac OS X 10_15_7) AppleWebKit/537.36 (KHTML, like Gecko) Chrome/127.0.0.0 Safari/537.36" version="24.7.6">
  <diagram name="Page-1" id="9QlgPVb6Ir8IqUzOu3q1">
    <mxGraphModel dx="2261" dy="761" grid="1" gridSize="10" guides="1" tooltips="1" connect="1" arrows="1" fold="1" page="1" pageScale="1" pageWidth="827" pageHeight="1169" math="0" shadow="0">
      <root>
        <mxCell id="0" />
        <mxCell id="1" parent="0" />
        <mxCell id="sSi-2eJK_k2GCrK3Pr8y-3" style="edgeStyle=orthogonalEdgeStyle;rounded=0;orthogonalLoop=1;jettySize=auto;html=1;entryX=0;entryY=0.5;entryDx=0;entryDy=0;endArrow=ERmany;endFill=0;" edge="1" parent="1" source="sSi-2eJK_k2GCrK3Pr8y-1" target="sSi-2eJK_k2GCrK3Pr8y-2">
          <mxGeometry relative="1" as="geometry" />
        </mxCell>
        <mxCell id="sSi-2eJK_k2GCrK3Pr8y-14" style="edgeStyle=orthogonalEdgeStyle;rounded=0;orthogonalLoop=1;jettySize=auto;html=1;entryX=0.5;entryY=1;entryDx=0;entryDy=0;endArrow=ERmany;endFill=0;" edge="1" parent="1" source="sSi-2eJK_k2GCrK3Pr8y-1" target="sSi-2eJK_k2GCrK3Pr8y-13">
          <mxGeometry relative="1" as="geometry" />
        </mxCell>
        <mxCell id="sSi-2eJK_k2GCrK3Pr8y-15" style="edgeStyle=orthogonalEdgeStyle;rounded=0;orthogonalLoop=1;jettySize=auto;html=1;entryX=0.5;entryY=1;entryDx=0;entryDy=0;endArrow=oval;endFill=0;" edge="1" parent="1" source="sSi-2eJK_k2GCrK3Pr8y-1" target="sSi-2eJK_k2GCrK3Pr8y-12">
          <mxGeometry relative="1" as="geometry" />
        </mxCell>
        <mxCell id="sSi-2eJK_k2GCrK3Pr8y-23" style="edgeStyle=orthogonalEdgeStyle;rounded=0;orthogonalLoop=1;jettySize=auto;html=1;entryX=1;entryY=0.5;entryDx=0;entryDy=0;endArrow=ERmany;endFill=0;" edge="1" parent="1" source="sSi-2eJK_k2GCrK3Pr8y-1" target="sSi-2eJK_k2GCrK3Pr8y-8">
          <mxGeometry relative="1" as="geometry" />
        </mxCell>
        <mxCell id="sSi-2eJK_k2GCrK3Pr8y-1" value="Donor" style="rounded=0;whiteSpace=wrap;html=1;fillColor=#d5e8d4;strokeColor=#82b366;" vertex="1" parent="1">
          <mxGeometry x="320" y="190" width="120" height="60" as="geometry" />
        </mxCell>
        <mxCell id="sSi-2eJK_k2GCrK3Pr8y-6" style="edgeStyle=orthogonalEdgeStyle;rounded=0;orthogonalLoop=1;jettySize=auto;html=1;entryX=0;entryY=0.5;entryDx=0;entryDy=0;endArrow=oval;endFill=0;" edge="1" parent="1" source="sSi-2eJK_k2GCrK3Pr8y-2" target="sSi-2eJK_k2GCrK3Pr8y-5">
          <mxGeometry relative="1" as="geometry" />
        </mxCell>
        <mxCell id="sSi-2eJK_k2GCrK3Pr8y-7" style="edgeStyle=orthogonalEdgeStyle;rounded=0;orthogonalLoop=1;jettySize=auto;html=1;entryX=0;entryY=0.5;entryDx=0;entryDy=0;" edge="1" parent="1" source="sSi-2eJK_k2GCrK3Pr8y-2" target="sSi-2eJK_k2GCrK3Pr8y-4">
          <mxGeometry relative="1" as="geometry" />
        </mxCell>
        <mxCell id="sSi-2eJK_k2GCrK3Pr8y-2" value="Image (MRI)" style="rounded=0;whiteSpace=wrap;html=1;fillColor=#e1d5e7;strokeColor=#9673a6;" vertex="1" parent="1">
          <mxGeometry x="520" y="190" width="120" height="60" as="geometry" />
        </mxCell>
        <mxCell id="sSi-2eJK_k2GCrK3Pr8y-4" value="Metadata" style="rounded=0;whiteSpace=wrap;html=1;" vertex="1" parent="1">
          <mxGeometry x="680" y="150" width="120" height="60" as="geometry" />
        </mxCell>
        <mxCell id="sSi-2eJK_k2GCrK3Pr8y-44" style="edgeStyle=orthogonalEdgeStyle;rounded=0;orthogonalLoop=1;jettySize=auto;html=1;entryX=0;entryY=0.5;entryDx=0;entryDy=0;endArrow=ERmany;endFill=0;" edge="1" parent="1" source="sSi-2eJK_k2GCrK3Pr8y-5" target="sSi-2eJK_k2GCrK3Pr8y-43">
          <mxGeometry relative="1" as="geometry" />
        </mxCell>
        <mxCell id="sSi-2eJK_k2GCrK3Pr8y-5" value="Sample (RFE)" style="rounded=0;whiteSpace=wrap;html=1;" vertex="1" parent="1">
          <mxGeometry x="680" y="230" width="120" height="60" as="geometry" />
        </mxCell>
        <mxCell id="sSi-2eJK_k2GCrK3Pr8y-18" style="edgeStyle=orthogonalEdgeStyle;rounded=0;orthogonalLoop=1;jettySize=auto;html=1;entryX=1;entryY=0.5;entryDx=0;entryDy=0;endArrow=oval;endFill=0;" edge="1" parent="1" source="sSi-2eJK_k2GCrK3Pr8y-8" target="sSi-2eJK_k2GCrK3Pr8y-10">
          <mxGeometry relative="1" as="geometry" />
        </mxCell>
        <mxCell id="sSi-2eJK_k2GCrK3Pr8y-19" style="edgeStyle=orthogonalEdgeStyle;rounded=0;orthogonalLoop=1;jettySize=auto;html=1;entryX=1;entryY=0.5;entryDx=0;entryDy=0;endArrow=ERmany;endFill=0;" edge="1" parent="1" source="sSi-2eJK_k2GCrK3Pr8y-8" target="sSi-2eJK_k2GCrK3Pr8y-11">
          <mxGeometry relative="1" as="geometry" />
        </mxCell>
        <mxCell id="sSi-2eJK_k2GCrK3Pr8y-20" style="edgeStyle=orthogonalEdgeStyle;rounded=0;orthogonalLoop=1;jettySize=auto;html=1;entryX=1;entryY=0.5;entryDx=0;entryDy=0;endArrow=oval;endFill=0;" edge="1" parent="1" source="sSi-2eJK_k2GCrK3Pr8y-8" target="sSi-2eJK_k2GCrK3Pr8y-16">
          <mxGeometry relative="1" as="geometry" />
        </mxCell>
        <mxCell id="sSi-2eJK_k2GCrK3Pr8y-24" style="edgeStyle=orthogonalEdgeStyle;rounded=0;orthogonalLoop=1;jettySize=auto;html=1;entryX=0.5;entryY=0;entryDx=0;entryDy=0;endArrow=oval;endFill=0;" edge="1" parent="1" source="sSi-2eJK_k2GCrK3Pr8y-8" target="sSi-2eJK_k2GCrK3Pr8y-21">
          <mxGeometry relative="1" as="geometry" />
        </mxCell>
        <mxCell id="sSi-2eJK_k2GCrK3Pr8y-25" style="edgeStyle=orthogonalEdgeStyle;rounded=0;orthogonalLoop=1;jettySize=auto;html=1;entryX=0.5;entryY=0;entryDx=0;entryDy=0;endArrow=oval;endFill=0;" edge="1" parent="1" source="sSi-2eJK_k2GCrK3Pr8y-8" target="sSi-2eJK_k2GCrK3Pr8y-22">
          <mxGeometry relative="1" as="geometry">
            <Array as="points">
              <mxPoint x="180" y="320" />
              <mxPoint x="500" y="320" />
            </Array>
          </mxGeometry>
        </mxCell>
        <mxCell id="sSi-2eJK_k2GCrK3Pr8y-37" style="edgeStyle=orthogonalEdgeStyle;rounded=0;orthogonalLoop=1;jettySize=auto;html=1;entryX=0.5;entryY=0;entryDx=0;entryDy=0;endArrow=oval;endFill=0;" edge="1" parent="1" source="sSi-2eJK_k2GCrK3Pr8y-8" target="sSi-2eJK_k2GCrK3Pr8y-35">
          <mxGeometry relative="1" as="geometry">
            <Array as="points">
              <mxPoint x="180" y="320" />
              <mxPoint x="680" y="320" />
            </Array>
          </mxGeometry>
        </mxCell>
        <mxCell id="sSi-2eJK_k2GCrK3Pr8y-8" value="Specimen (Material, Cell Line, Organoid, Xenograft)" style="rounded=0;whiteSpace=wrap;html=1;fillColor=#ffe6cc;strokeColor=#d79b00;" vertex="1" parent="1">
          <mxGeometry x="120" y="190" width="120" height="60" as="geometry" />
        </mxCell>
        <mxCell id="sSi-2eJK_k2GCrK3Pr8y-10" value="Molecular Data" style="rounded=0;whiteSpace=wrap;html=1;" vertex="1" parent="1">
          <mxGeometry x="-40" y="190" width="120" height="60" as="geometry" />
        </mxCell>
        <mxCell id="sSi-2eJK_k2GCrK3Pr8y-11" value="Intervention" style="rounded=0;whiteSpace=wrap;html=1;" vertex="1" parent="1">
          <mxGeometry x="-40" y="110" width="120" height="60" as="geometry" />
        </mxCell>
        <mxCell id="sSi-2eJK_k2GCrK3Pr8y-12" value="Clinical Data" style="rounded=0;whiteSpace=wrap;html=1;" vertex="1" parent="1">
          <mxGeometry x="250" y="90" width="120" height="60" as="geometry" />
        </mxCell>
        <mxCell id="sSi-2eJK_k2GCrK3Pr8y-13" value="Treatment" style="rounded=0;whiteSpace=wrap;html=1;" vertex="1" parent="1">
          <mxGeometry x="390" y="90" width="120" height="60" as="geometry" />
        </mxCell>
        <mxCell id="sSi-2eJK_k2GCrK3Pr8y-42" style="edgeStyle=orthogonalEdgeStyle;rounded=0;orthogonalLoop=1;jettySize=auto;html=1;entryX=1;entryY=0.5;entryDx=0;entryDy=0;endArrow=ERmany;endFill=0;" edge="1" parent="1" source="sSi-2eJK_k2GCrK3Pr8y-16" target="sSi-2eJK_k2GCrK3Pr8y-41">
          <mxGeometry relative="1" as="geometry" />
        </mxCell>
        <mxCell id="sSi-2eJK_k2GCrK3Pr8y-16" value="Sample (DSA)" style="rounded=0;whiteSpace=wrap;html=1;" vertex="1" parent="1">
          <mxGeometry x="-40" y="270" width="120" height="60" as="geometry" />
        </mxCell>
        <mxCell id="sSi-2eJK_k2GCrK3Pr8y-29" style="edgeStyle=orthogonalEdgeStyle;rounded=0;orthogonalLoop=1;jettySize=auto;html=1;entryX=0.5;entryY=0;entryDx=0;entryDy=0;endArrow=ERmany;endFill=0;" edge="1" parent="1" source="sSi-2eJK_k2GCrK3Pr8y-21" target="sSi-2eJK_k2GCrK3Pr8y-26">
          <mxGeometry relative="1" as="geometry">
            <Array as="points">
              <mxPoint x="180" y="470" />
              <mxPoint x="40" y="470" />
            </Array>
          </mxGeometry>
        </mxCell>
        <mxCell id="sSi-2eJK_k2GCrK3Pr8y-30" style="edgeStyle=orthogonalEdgeStyle;rounded=0;orthogonalLoop=1;jettySize=auto;html=1;entryX=0.5;entryY=0;entryDx=0;entryDy=0;endArrow=ERmany;endFill=0;" edge="1" parent="1" source="sSi-2eJK_k2GCrK3Pr8y-21" target="sSi-2eJK_k2GCrK3Pr8y-27">
          <mxGeometry relative="1" as="geometry" />
        </mxCell>
        <mxCell id="sSi-2eJK_k2GCrK3Pr8y-31" style="edgeStyle=orthogonalEdgeStyle;rounded=0;orthogonalLoop=1;jettySize=auto;html=1;entryX=0.5;entryY=0;entryDx=0;entryDy=0;endArrow=ERmany;endFill=0;" edge="1" parent="1" source="sSi-2eJK_k2GCrK3Pr8y-21" target="sSi-2eJK_k2GCrK3Pr8y-28">
          <mxGeometry relative="1" as="geometry">
            <Array as="points">
              <mxPoint x="180" y="470" />
              <mxPoint x="320" y="470" />
            </Array>
          </mxGeometry>
        </mxCell>
        <mxCell id="sSi-2eJK_k2GCrK3Pr8y-21" value="Sample (DNA)" style="rounded=0;whiteSpace=wrap;html=1;" vertex="1" parent="1">
          <mxGeometry x="120" y="390" width="120" height="60" as="geometry" />
        </mxCell>
        <mxCell id="sSi-2eJK_k2GCrK3Pr8y-33" style="edgeStyle=orthogonalEdgeStyle;rounded=0;orthogonalLoop=1;jettySize=auto;html=1;endArrow=ERmany;endFill=0;" edge="1" parent="1" source="sSi-2eJK_k2GCrK3Pr8y-22" target="sSi-2eJK_k2GCrK3Pr8y-32">
          <mxGeometry relative="1" as="geometry" />
        </mxCell>
        <mxCell id="sSi-2eJK_k2GCrK3Pr8y-22" value="Sample (RNA)" style="rounded=0;whiteSpace=wrap;html=1;" vertex="1" parent="1">
          <mxGeometry x="440" y="390" width="120" height="60" as="geometry" />
        </mxCell>
        <mxCell id="sSi-2eJK_k2GCrK3Pr8y-26" value="SSM" style="rounded=0;whiteSpace=wrap;html=1;" vertex="1" parent="1">
          <mxGeometry x="-20" y="490" width="120" height="60" as="geometry" />
        </mxCell>
        <mxCell id="sSi-2eJK_k2GCrK3Pr8y-27" value="CNV" style="rounded=0;whiteSpace=wrap;html=1;" vertex="1" parent="1">
          <mxGeometry x="120" y="490" width="120" height="60" as="geometry" />
        </mxCell>
        <mxCell id="sSi-2eJK_k2GCrK3Pr8y-28" value="SV" style="rounded=0;whiteSpace=wrap;html=1;" vertex="1" parent="1">
          <mxGeometry x="260" y="490" width="120" height="60" as="geometry" />
        </mxCell>
        <mxCell id="sSi-2eJK_k2GCrK3Pr8y-32" value="Gene Expression" style="rounded=0;whiteSpace=wrap;html=1;" vertex="1" parent="1">
          <mxGeometry x="440" y="490" width="120" height="60" as="geometry" />
        </mxCell>
        <mxCell id="sSi-2eJK_k2GCrK3Pr8y-34" style="edgeStyle=orthogonalEdgeStyle;rounded=0;orthogonalLoop=1;jettySize=auto;html=1;endArrow=ERmany;endFill=0;" edge="1" parent="1" source="sSi-2eJK_k2GCrK3Pr8y-35" target="sSi-2eJK_k2GCrK3Pr8y-36">
          <mxGeometry relative="1" as="geometry" />
        </mxCell>
        <mxCell id="sSi-2eJK_k2GCrK3Pr8y-35" value="Sample (scRNA)" style="rounded=0;whiteSpace=wrap;html=1;" vertex="1" parent="1">
          <mxGeometry x="620" y="390" width="120" height="60" as="geometry" />
        </mxCell>
        <mxCell id="sSi-2eJK_k2GCrK3Pr8y-36" value="Cell Gene Expression" style="rounded=0;whiteSpace=wrap;html=1;" vertex="1" parent="1">
          <mxGeometry x="620" y="490" width="120" height="60" as="geometry" />
        </mxCell>
        <mxCell id="sSi-2eJK_k2GCrK3Pr8y-41" value="Drug Screenig" style="rounded=0;whiteSpace=wrap;html=1;" vertex="1" parent="1">
          <mxGeometry x="-200" y="270" width="120" height="60" as="geometry" />
        </mxCell>
        <mxCell id="sSi-2eJK_k2GCrK3Pr8y-43" value="Radiomics Feature" style="rounded=0;whiteSpace=wrap;html=1;" vertex="1" parent="1">
          <mxGeometry x="840" y="230" width="120" height="60" as="geometry" />
        </mxCell>
      </root>
    </mxGraphModel>
  </diagram>
</mxfile>
